# xmcd CD database file
#
# Track frame offsets:
#	150
#	16187
#	40718
#	61907
#	78322
#	92714
#	113773
#	132023
#	147861
#	170547
#	185052
#	204635
#	222425
#
# Disc length: 3238 seconds
#
# Revision: 3
# Processed by: cddbd v1.5.2PL0 Copyright (c) Steve Scherf et al.
# Submitted via: CDex 1.51
#
DISCID=b00ca40d
DTITLE=Mundovivo - Mundo vivo (sampler' 99)
DYEAR=1999
DGENRE=New Age
TTITLE0=Andres Cóndon - Sentimientos del sur
TTITLE1=Entrama - Vuelo de pajaros
TTITLE2=Pini Levalle - Alma animal
TTITLE3=Subhira - Cahuelmo
TTITLE4=Marcelo Aedo - Mar
TTITLE5=Andres Cóndon - Mensajera
TTITLE6=Antonio Restucci - El leñador
TTITLE7=Antonio Restucci - La disyuntiva
TTITLE8=Subhira - Del sur
TTITLE9=Entrama - El plazo del angel
TTITLE10=Subhira - Pehuen
TTITLE11=Pini Levalle - Juego de sanza
TTITLE12=Marcelo Aedo - El orejon
EXTD=YEAR: 1999
EXTT0=
EXTT1=
EXTT2=
EXTT3=
EXTT4=
EXTT5=
EXTT6=
EXTT7=
EXTT8=
EXTT9=
EXTT10=
EXTT11=
EXTT12=
PLAYORDER=
